# xmcd
#
# Track frame offsets:
# 150
# 21446
# 39703
# 66821
# 79758
# 102205
# 117525
# 133123
# 151321
#
# Disc length: 2281 seconds
#
#
# Revision: 0
# Processed by: cddbd v1.5.1PL0 Copyright (c) Steve Scherf et al.
# Submitted via: FreeRIP 2.91 
#
DISCID=7808e709
DTITLE=Enrique Bunbury - de mayor
DYEAR=1900
DGENRE=rock
TTITLE0=de mayor (pequeño cabaret ambulante)
TTITLE1=infinito
TTITLE2=dudar, ¿quizas?
TTITLE3=alicia
TTITLE4=el viento a favor
TTITLE5=estrellas
TTITLE6=algo en comun
TTITLE7=infinito
TTITLE8=el viento a favor
EXTD=
EXTT0=
EXTT1=
EXTT2=
EXTT3=
EXTT4=
EXTT5=
EXTT6=
EXTT7=
EXTT8=
PLAYORDER=
